<svg xmlns="http://www.w3.org/2000/svg" viewBox="0 0 24 24"><path fill="currentColor" d="M5 20C4.45 20 3.97917 19.8042 3.5875 19.4125C3.19583 19.0208 3 18.55 3 18V6C3 5.45 3.19583 4.97917 3.5875 4.5875C3.97917 4.19583 4.45 4 5 4H8C8.28333 4 8.52083 4.09583 8.7125 4.2875C8.90417 4.47917 9 4.71667 9 5C9 5.28333 8.90417 5.52083 8.7125 5.7125C8.52083 5.90417 8.28333 6 8 6H5V18H8C8.28333 18 8.52083 18.0958 8.7125 18.2875C8.90417 18.4792 9 18.7167 9 19C9 19.2833 8.90417 19.5208 8.7125 19.7125C8.52083 19.9042 8.28333 20 8 20H5ZM11 21V3C11 2.71667 11.0958 2.47917 11.2875 2.2875C11.4792 2.09583 11.7167 2 12 2C12.2833 2 12.5208 2.09583 12.7125 2.2875C12.9042 2.47917 13 2.71667 13 3V4H19C19.55 4 20.0208 4.19583 20.4125 4.5875C20.8042 4.97917 21 5.45 21 6V18C21 18.55 20.8042 19.0208 20.4125 19.4125C20.0208 19.8042 19.55 20 19 20H13V21C13 21.2833 12.9042 21.5208 12.7125 21.7125C12.5208 21.9042 12.2833 22 12 22C11.7167 22 11.4792 21.9042 11.2875 21.7125C11.0958 21.5208 11 21.2833 11 21Z"/></svg>
